<?xml version="1.0" encoding="utf-8"?>
<!-- Generator: Adobe Illustrator 18.1.1, SVG Export Plug-In . SVG Version: 6.00 Build 0)  -->
<svg version="1.1" xmlns="http://www.w3.org/2000/svg" xmlns:xlink="http://www.w3.org/1999/xlink" x="0px" y="0px" width="452.8px"
	 height="73.4px" viewBox="0 0 452.8 73.4" enable-background="new 0 0 452.8 73.4" xml:space="preserve">
<g id="Background">
</g>
<g id="Icon_Element_1">
	<path d="M116.6,0h-2.9h-1.3H99.7c-5.9,0-12.3,3.7-16.2,8.8h-38c-7.8,0-16.4,6.3-19.1,14.1l-1.2,3.3c0,0,0,0,0,0l-4.7,13.2
		c0,0,0,0,0,0l-4.9,13.8L9.9,36.8C8.6,33,10.6,30,14.3,30h7.2l2.6-7.3H11.8C4,22.7-0.1,29,2.6,36.8L13,66.4c0.2,0.7,0.4,1.3,0.7,1.9
		c0.7,1.4,1.6,2.5,2.9,3.4l4-11.5c0,0,0-0.1,0-0.1c0,0,0,0,0,0c0.1-0.3,0.1-0.5,0.2-0.8l4.8-13.5c0,0,0,0,0,0l8-22.7
		c1.3-3.8,5.5-6.9,9.3-6.9h36.9h7.3l0.7-2c0.8-2.1,2.4-4.1,4.4-5.3c1.5-1,3.2-1.5,4.9-1.5h10.6h2.7h3.7c2.2,0,3.8,1,4.5,2.6
		c0.5,1.2,0.5,2.6,0,4.2l-5.1,14.5c0,0,0,0-0.1,0l-4.1,11.7c0,0,0,0,0,0l-6.6,18.8c-1.3,3.8-5.5,6.9-9.3,6.9H44.5
		c0.2-0.5,0.4-1,0.6-1.6c0.5-1.3,0.9-2.7,1.4-4c0.1-0.3,0.2-0.6,0.3-0.9c2.1-5.8,3.6-11.9,5.8-17.5c1-2.5,2.7-5.1,5-6.6
		c1.8-1.2,4.5-1.9,7.8-2h1.9h2.5h15.7h7.3l0.4-1.3L96.8,22c-1.9,0-4.5,0-7.4,0c-8.1,0-18.1,0-18.1,0l-1.2,0c-9.6,0-16.5,2-21.1,6.2
		c-4.3,4-7.9,10.2-11,19l-4.4,12.3l-0.3,0.9l-1.4,4l-0.6,1.6l-0.2,0.4L30.4,69l-1.5,4.3h13.1h48.8c7.8,0,16.4-6.3,19.1-14.1l5-14
		c0,0,0,0,0,0l4.1-11.6c0,0,0,0,0,0l6.9-19.5C128.5,6.3,124.4,0,116.6,0z"/>
</g>
<g id="Icon_Element_2">
	<path fill="#D43739" d="M77,41c-9.3,0-16,2-20.3,6.1c-3,2.8-5.7,6.8-8.1,12c0.4-0.5,0.9-0.9,1.3-1.3c4.4-4.1,11-6.1,20.3-6.1l1.2,0
		c0,0,7.7,0,15,0L90.1,41c-6.2,0-12,0-12,0L77,41z"/>
</g>
<g id="File">
	<path d="M133.1,21.9h29.3L161,26c-0.8-0.2-1.7-0.2-2.7-0.2h-13.2l-4.3,12.4h10.7c1.1,0,2-0.1,2.9-0.2l-1.5,4.3
		c-0.7-0.2-1.5-0.2-2.5-0.2h-11.1l-5.1,14.8c-0.2,0.7-0.3,1.3-0.2,1.8h-13.8c0.5-0.5,0.8-1.1,1-1.8l11.5-33.2
		C133.1,23,133.2,22.4,133.1,21.9z"/>
	<path d="M161.6,29h12.9c-0.4,0.5-0.8,1.1-1,1.8l-9,26.1c-0.2,0.7-0.3,1.3-0.2,1.8h-12.9c0.4-0.5,0.8-1.1,1-1.8l9-26.1
		C161.7,30,161.7,29.4,161.6,29z M171,20.9c4.3,0,6.1,1,5.4,3c-0.7,2.1-3.2,3.2-7.5,3.2c-4.4,0-6.2-1-5.5-3.1c0.3-1,1.2-1.7,2.5-2.3
		C167.2,21.2,168.9,20.9,171,20.9z"/>
	<path d="M194.2,19c-0.4,0.5-0.8,1.1-1,1.8l-12.4,36c-0.2,0.7-0.3,1.3-0.2,1.8h-12.9c0.4-0.5,0.8-1.1,1-1.8l12.4-36
		c0.2-0.7,0.3-1.3,0.2-1.8H194.2z"/>
	<path d="M220,56.6c-3.3,1-6,1.7-8.3,2c-2.3,0.4-4.8,0.5-7.7,0.5c-7.3,0-12.4-1.4-15.2-4.3c-2.6-2.6-3.2-6.2-1.6-10.8
		c1.8-5.1,5.1-9.1,10-12c4.5-2.6,9.8-4,15.9-4c8.1,0,12.8,2.3,14.2,6.9c0.6,2.2,0.4,5-0.8,8.6h-26.6c-0.9,2.9-1.3,5.2-1,6.8
		c0.5,3.2,3.4,4.9,8.5,4.9c4,0,8.4-1.2,13-3.6L220,56.6z M201.4,39.8H215c0.4-1.7,0.7-3,0.7-4c0-1.2-0.4-2.2-1.2-2.9
		c-0.8-0.7-1.9-1.1-3.3-1.1c-2,0-3.9,0.7-5.6,2.1C203.9,35.3,202.5,37.2,201.4,39.8z"/>
</g>
<g id="Factory">
	<path fill="#D43739" d="M273.2,55.7c-1.8,1.1-3.3,1.8-4.7,2.3c-2.3,0.8-4.9,1.2-7.8,1.2c-3.3,0-5.6-0.7-7-2
		c-1.7-1.7-2.1-3.9-1.2-6.7c1-3,3.3-5.4,6.8-7c1.6-0.8,3.2-1.3,4.7-1.7c1.5-0.4,4.5-1,8.7-1.9c2-0.4,3.6-0.9,4.6-1.5
		c1-0.6,1.7-1.4,2-2.3c0.4-1.1,0.1-2-0.9-2.7c-1-0.7-2.5-1-4.4-1c-1.8,0-3.5,0.2-5.1,0.6c-1.6,0.4-3.6,1.1-6,2.2l0.2-4.8
		c5.7-1.4,11.1-2.1,16.2-2.1c4.8,0,8.3,0.6,10.4,1.9c2.1,1.3,2.7,3.1,1.9,5.5L286,51.8c-0.5,1.4,0,2,1.3,2c0.6,0,1.5-0.3,2.7-0.8
		l-1.5,4.3c-1.9,0.7-3.4,1.2-4.5,1.5c-1.1,0.2-2.5,0.4-4,0.4c-2.1,0-3.7-0.3-4.6-0.8C274.4,57.9,273.7,57,273.2,55.7z M277.3,42.1
		c-0.8,0.3-2.9,0.9-6.1,1.9c-1.7,0.5-3.2,1.3-4.5,2.3c-1.3,1-2.1,2.2-2.5,3.4c-0.4,1.2-0.3,2.2,0.3,2.9c0.6,0.7,1.7,1.1,3.1,1.1
		c1.7,0,3.2-0.4,4.5-1.2c1.4-0.8,2.3-1.8,2.7-3.1L277.3,42.1z"/>
	<path fill="#D43739" d="M318.3,57.5c-3.5,0.8-5.9,1.2-7.3,1.4c-1.4,0.2-3.1,0.3-5.1,0.3c-6.2,0-10.6-1.3-13.3-3.8
		c-3-2.8-3.6-6.6-1.9-11.4c1.8-5.2,5.5-9.2,11.1-12.1c4.6-2.4,10-3.6,16-3.6c3.2,0,6.6,0.4,10.2,1.2l-1.9,5.5c-1.6-1.1-3-1.9-4-2.2
		c-1.1-0.4-2.4-0.6-4.1-0.6c-3.4,0-6.3,1-8.7,2.9c-2.6,2-4.5,4.8-5.7,8.4c-1.1,3.3-1.3,6-0.5,8.1c0.9,2.3,3.1,3.4,6.7,3.4
		c1.6,0,3.2-0.2,4.7-0.6c1.5-0.4,3.4-1.1,5.6-2.1L318.3,57.5z"/>
	<path fill="#D43739" d="M332.2,32.9H327l1.3-3.9h5.2l1.5-4.4l12.7-0.9c-0.5,0.8-0.8,1.5-1,2l-1.2,3.3h6.1l-1.3,3.9h-6.1l-6.8,19.6
		c-0.5,1.5,0.1,2.2,1.9,2.2c1,0,2.3-0.3,3.7-0.8l-1.4,4.1c-3.1,0.9-6,1.3-8.8,1.3c-3.3,0-5.6-0.5-6.8-1.5c-1.3-1-1.5-2.5-0.8-4.5
		L332.2,32.9z"/>
	<path fill="#D43739" d="M370.1,28.2c6.2,0,10.6,1.4,13.2,4.1c2.6,2.8,3.1,6.6,1.4,11.4c-1.7,5.1-5.1,9-10.2,11.9
		c-4.2,2.4-9.2,3.6-15,3.6c-5.9,0-10.1-1.2-12.6-3.7c-3-2.9-3.6-6.9-1.8-12.1c1.6-4.6,4.7-8.4,9.3-11.2c2.2-1.4,4.6-2.4,7.1-3
		C364,28.6,366.9,28.3,370.1,28.2z M368.9,31.9c-1.1,0-2.2,0.3-3.3,0.8c-1.1,0.5-2.1,1.1-2.8,1.9c-2.1,2.2-3.7,5.2-5.1,9
		c-1.4,3.9-1.8,7-1.2,9.2c0.2,0.8,0.7,1.5,1.5,1.9c0.8,0.5,1.7,0.7,2.8,0.7c1.1,0,2.1-0.2,3.3-0.8c1.1-0.5,2.1-1.1,2.8-1.9
		c2.1-2.2,3.8-5.3,5.1-9.1c1.4-3.9,1.8-7,1.2-9.1c-0.2-0.8-0.7-1.4-1.5-1.9C370.9,32.2,370,31.9,368.9,31.9z"/>
	<path fill="#D43739" d="M391.6,29h12.2l-1.1,3.1c2-2.5,5.8-3.8,11.4-3.9l-2.2,6.3c-0.8-0.1-1.5-0.1-2-0.1c-5.2,0-8.4,1.9-9.8,5.8
		l-5.7,16.6c-0.2,0.7-0.3,1.3-0.2,1.8h-12.9c0.5-0.5,0.8-1.1,1-1.8l9-26.1C391.7,30.1,391.7,29.5,391.6,29z"/>
	<path fill="#D43739" d="M419,58.7l-5-28c-0.1-0.6-0.3-1.2-0.6-1.7h14.2c-0.1,0.5-0.2,1.1-0.1,1.7l2.2,16.3l14.7-16.3
		c0.6-0.6,1-1.2,1.2-1.7h7.1c-0.7,0.5-1.3,1.1-1.9,1.7l-32,34.6c-0.6,0.7-1,1.3-1.2,1.7h-7.4c0.7-0.5,1.4-1.1,2-1.7L419,58.7z"/>
	<path fill="#D43739" d="M236.3,21.9c0.1,0.5,0,1.1-0.2,1.8L231,38.3c3.4-2.9,8.2-4.6,14.7-5c0.1-0.2,0.2-0.5,0.3-0.7
		c0.8-2.3,1.6-4.6,2.4-6.8h13.2c1,0,1.9,0.1,2.7,0.2l1.4-4.1H236.3z"/>
	<path fill="#D43739" d="M224.7,56.8c-0.2,0.7-0.6,1.3-1,1.8h13.8c-0.1-0.5,0-1.1,0.2-1.8c1.9-5.4,3.8-10.8,5.6-16.1
		c-6,0.3-10.8,1.7-14.4,4L224.7,56.8z"/>
</g>
<g id="Factory_Swoosh">
	<path fill="#D43739" d="M246.5,42.6l1.2,0c0,0,4.8,0,10.4,0l2.6-7.4c-5.6,0-10.8,0-10.8,0l-1,0c-8.4,0-14.4,1.8-18.3,5.5
		c-2.7,2.5-5.1,6.1-7.2,10.8c0.4-0.4,0.8-0.8,1.2-1.2c0.3-0.3,0.7-0.6,1.1-0.9c0.3-0.3,0.5-0.6,0.8-0.8
		C230.7,44.6,237.3,42.6,246.5,42.6z"/>
</g>
<g id="Tagline">
</g>
</svg>
